<?xml version="1.0" encoding="utf-8"?>
<!-- Generator: Adobe Illustrator 22.1.0, SVG Export Plug-In . SVG Version: 6.00 Build 0)  -->
<svg version="1.1" id="logo_x5F_3" xmlns="http://www.w3.org/2000/svg" xmlns:xlink="http://www.w3.org/1999/xlink" x="0px" y="0px"
	 viewBox="0 0 127.4 372.1" style="enable-background:new 0 0 127.4 372.1;" xml:space="preserve">
<style type="text/css">
	.st0{fill:#ED1C24;}
</style>
<g>
	<polygon class="st0" points="13.7,336.2 43.7,306.2 13.7,276.2 33.7,256.2 63.7,286.2 93.7,256.2 113.7,276.2 83.7,306.2 
		113.7,336.2 93.7,356.2 63.7,326.2 33.7,356.2 	"/>
	<polygon class="st0" points="13.7,96 43.7,66 13.7,36 33.7,16 63.7,46 93.7,16 113.7,36 83.7,66 113.7,96 93.7,116 63.7,86 
		33.7,116 	"/>
	<polygon class="st0" points="13.7,216.2 43.7,186.2 13.7,156.2 33.7,136.2 63.7,166.2 93.7,136.2 113.7,156.2 83.7,186.2 
		113.7,216.2 93.7,236.2 63.7,206.2 33.7,236.2 	"/>
</g>
</svg>
