<?xml version="1.0" encoding="utf-8"?>
<!-- Generator: Adobe Illustrator 22.1.0, SVG Export Plug-In . SVG Version: 6.00 Build 0)  -->
<svg version="1.1" id="Layer_1" xmlns="http://www.w3.org/2000/svg" xmlns:xlink="http://www.w3.org/1999/xlink" x="0px" y="0px"
	 viewBox="0 0 462.5 405.8" style="enable-background:new 0 0 462.5 405.8;" xml:space="preserve">
<style type="text/css">
	.st0{fill:#71471C;stroke:#000000;stroke-width:0.6;stroke-linecap:round;stroke-linejoin:round;stroke-miterlimit:10;}
	.st1{fill:#7B993D;stroke:#000000;stroke-width:0.6;stroke-linecap:round;stroke-linejoin:round;stroke-miterlimit:10;}
	.st2{fill:#93D3F4;stroke:#000000;stroke-width:0.6;stroke-linecap:round;stroke-linejoin:round;stroke-miterlimit:10;}
	.st3{fill:#B8D376;stroke:#000000;stroke-width:0.8013;stroke-linecap:round;stroke-linejoin:round;stroke-miterlimit:10;}
	.st4{fill:none;stroke:#8FAA47;stroke-linecap:round;stroke-linejoin:round;stroke-miterlimit:10;}
	.st5{fill:#5397C4;stroke:#000000;stroke-width:0.6;stroke-linecap:round;stroke-linejoin:round;stroke-miterlimit:10;}
	.st6{fill:#B8D376;stroke:#000000;stroke-width:0.6;stroke-miterlimit:10;}
	.st7{fill:none;stroke:#5397C4;stroke-width:0.6;stroke-linecap:round;stroke-linejoin:round;stroke-miterlimit:10;}
	.st8{fill:none;stroke:#000000;stroke-width:0.6;stroke-linecap:round;stroke-linejoin:round;stroke-miterlimit:10;}
	.st9{opacity:0.46;}
	
		.st10{fill:#76CFE4;fill-opacity:0.6;stroke:#000000;stroke-width:0.8013;stroke-linecap:round;stroke-linejoin:round;stroke-miterlimit:10;}
	.st11{fill:#C6C6C5;stroke:#000000;stroke-width:0.8013;stroke-linecap:round;stroke-linejoin:round;stroke-miterlimit:10;}
	.st12{fill:#515251;stroke:#000000;stroke-width:0.8013;stroke-linecap:round;stroke-linejoin:round;stroke-miterlimit:10;}
	.st13{opacity:0.5;}
	.st14{stroke:#000000;stroke-width:0.8013;stroke-linecap:round;stroke-linejoin:round;stroke-miterlimit:10;}
	.st15{fill:none;stroke:#FFFFFF;stroke-width:1.2019;stroke-miterlimit:10;stroke-dasharray:4.7282,4.7282;}
	.st16{fill:none;stroke:#FFFFFF;stroke-width:1.2019;stroke-miterlimit:10;stroke-dasharray:4.656,4.656;}
	.st17{fill:#C9C9C9;stroke:#000000;stroke-width:0.4006;stroke-miterlimit:10;}
	.st18{fill:#B0AFB0;stroke:#000000;stroke-width:0.4006;stroke-miterlimit:10;}
	.st19{fill:#999999;stroke:#000000;stroke-width:0.4006;stroke-miterlimit:10;}
	.st20{fill:#E2E2E2;stroke:#000000;stroke-width:0.4006;stroke-miterlimit:10;}
	.st21{fill:#6C7D9E;}
	.st22{fill:#5F6F8C;}
	.st23{fill:none;stroke:#000000;stroke-width:0.401;stroke-linecap:round;stroke-linejoin:round;stroke-miterlimit:10;}
	.st24{opacity:0.24;}
	.st25{fill:#BF7A40;stroke:#000000;stroke-width:0.4006;stroke-linecap:round;stroke-linejoin:round;stroke-miterlimit:10;}
	.st26{fill:none;stroke:#9B5F31;stroke-linecap:round;stroke-linejoin:round;stroke-miterlimit:10;}
	.st27{opacity:0.18;}
	.st28{fill:#723115;stroke:#000000;stroke-width:0.8;stroke-miterlimit:10;}
	.st29{fill:#87A33D;stroke:#000000;stroke-width:0.8;stroke-miterlimit:10;}
	.st30{fill:#7D933A;}
	.st31{fill:none;stroke:#000000;stroke-width:0.8;stroke-miterlimit:10;}
	.st32{fill:#87A33D;}
	.st33{fill:none;stroke:#000000;stroke-miterlimit:10;}
	.st34{fill:#532A15;stroke:#000000;stroke-width:0.6;stroke-linecap:round;stroke-linejoin:round;stroke-miterlimit:10;}
	.st35{clip-path:url(#SVGID_2_);fill:#BE8F2E;}
	.st36{fill:#392B13;stroke:#000000;stroke-width:0.6;stroke-linecap:round;stroke-linejoin:round;stroke-miterlimit:10;}
	.st37{fill:#271D0F;stroke:#000000;stroke-width:0.6;stroke-linecap:round;stroke-linejoin:round;stroke-miterlimit:10;}
	
		.st38{fill:#55ABDF;fill-opacity:0.8;stroke:#000000;stroke-width:0.6;stroke-linecap:round;stroke-linejoin:round;stroke-miterlimit:10;}
	.st39{fill:#F9CC5E;stroke:#000000;stroke-width:0.4;stroke-linecap:round;stroke-linejoin:round;stroke-miterlimit:10;}
	.st40{fill:#E5BA5A;stroke:#000000;stroke-width:0.4;stroke-linecap:round;stroke-linejoin:round;stroke-miterlimit:10;}
	.st41{fill:#A6D5F2;stroke:#000000;stroke-width:0.4;stroke-linecap:round;stroke-linejoin:round;stroke-miterlimit:10;}
	.st42{clip-path:url(#SVGID_4_);fill:#CE4327;}
	.st43{fill:none;stroke:#ED1C5A;stroke-width:2;stroke-linecap:round;stroke-linejoin:round;}
	.st44{fill:#ED1C5A;}
	.st45{fill:none;stroke:#F04A23;stroke-width:2;stroke-linecap:round;stroke-linejoin:round;}
	.st46{fill:#F04A23;}
	.st47{font-family:'Courier';}
	.st48{font-size:19.1661px;}
</style>
<g id="Landschapje_1_">
	<polygon class="st0" points="435.8,245 233.4,361.9 233.4,385.6 435.8,268.8 	"/>
	<path class="st1" d="M435.8,245L233.4,361.9l0.2,15.6c0,0,125-70,162.7-92.5c7.9-4.7,22.5-11.5,39.5-20.5V245z"/>
	<polygon class="st2" points="233.4,361.9 29.7,244.3 232.1,127.5 435.8,245 	"/>
	<path class="st3" d="M296,207.9c-12.7-2.9-27.3-2.2-33.1-1.3c-10.1,1.7-18.7,4.4-26.5,8.2c-21.8,10.7-41.9,23.2-67.9,30.4
		c-29.1,8.1-38.8,13-70.1,18.3c-10.4,1.7-18.1,3.6-25,5.9l160.1,92.4l170.8-98.6c-15.1-2.7-36-5.1-48-10.5
		C326.4,239.3,330.8,216,296,207.9z"/>
	<path class="st4" d="M77.5,269.9c5.9-1.8,12.6-3.3,21.1-4.7c21.8-3.7,33.2-7.2,47.7-11.6c6.4-2,13.6-4.2,22.6-6.7
		c19.7-5.5,36.2-14,52.2-22.3c5.2-2.7,10.6-5.5,16-8.2c7.8-3.8,16.3-6.5,26-8.1c3.1-0.5,7.7-0.8,12.4-0.8c5.1,0,12.7,0.4,20.1,2.1
		c18.6,4.3,25.6,13.1,33.1,22.3c6.4,7.9,13,16.1,26.8,22.4c9.7,4.4,25,6.9,38.5,9c1.8,0.3,3.5,0.6,5.2,0.8l-165.9,95.8L77.5,269.9z"
		/>
	<polygon class="st0" points="29.7,268.4 29.7,244.7 233.4,361.9 233.4,385.6 	"/>
	<path class="st1" d="M233.5,377.5l-0.2-15.6L29.7,244.3c0,0,0,14.4,0,17.2c14.4,8.1,90.9,53.2,124,70.5
		C195.8,353.9,233.5,377.5,233.5,377.5z"/>
	<path class="st5" d="M50.2,266c-11-6.4-17.2-11.2-20.5-15.2c0-1.6,0-3.3,0-6.5c18,10.4,43.6,25.2,43.6,25.2S73.3,279.4,50.2,266z"
		/>
	<path class="st6" d="M244.7,162.6c3-6.3,3-19.9,2.8-26.3l-15.3-8.8L42,237.2c5.9-1.2,12.6-2.4,21.3-3.9
		c27.4-4.8,39.9-9.8,69.4-17.4c26.4-6.8,47.5-18.7,69.9-29C210.6,183.3,240,172.4,244.7,162.6z"/>
	<path class="st7" d="M33.1,244.3l9.5-5.5c5.7-1.2,12.3-2.4,21-3.9c18.3-3.2,29.9-6.5,44.5-10.6c7.1-2,15.2-4.3,25-6.8
		c20.7-5.3,38.4-13.9,55.6-22.1c4.8-2.3,9.7-4.7,14.6-6.9c1.3-0.6,3.2-1.4,5.5-2.4c16.1-6.8,33.6-14.7,37.4-22.8
		c2.7-5.7,3.1-16.5,3-24L432.4,245l-28.5,16.4c-2.9-0.5-6-1-9.3-1.5c-13.3-2.1-28.4-4.6-37.7-8.8c-13.1-5.9-19.4-13.8-25.6-21.4
		c-7.9-9.8-15.3-19-35-23.5c-7.7-1.8-15.6-2.2-20.9-2.2c-4.9,0-9.7,0.3-12.9,0.9c-10,1.7-18.9,4.4-27,8.4
		c-5.4,2.7-10.9,5.5-16.1,8.2c-15.8,8.2-32.1,16.7-51.5,22.1c-9,2.5-16.3,4.7-22.7,6.7c-14.4,4.4-25.7,7.9-47.3,11.5
		c-10.1,1.7-17.7,3.5-24.5,5.8L33.1,244.3z"/>
	<path class="st4" d="M232.1,129.4l13.6,7.9c0.2,6.1,0.1,18.8-2.6,24.6c-3.6,7.6-25.3,16.7-35.7,21.1c-2.3,1-4.2,1.8-5.6,2.4
		c-4.9,2.3-9.9,4.7-14.7,7c-17,8.2-34.5,16.6-54.9,21.9c-9.9,2.5-18,4.8-25.1,6.8c-14.5,4.1-26,7.3-44.2,10.5c-4.2,0.7-8,1.4-11.4,2
		L232.1,129.4z"/>
	<polygon class="st8" points="233.4,361.9 29.7,244.3 232.1,127.5 435.8,245 	"/>
	<path class="st5" d="M435.8,245l-31.6,18.2c0,5.8,18.4,9.2,31.6,4.1V245z"/>
</g>
<g id="Bushokje_2_">
	<polygon class="st9" points="292.5,225.1 311.9,236.3 301.8,241.8 282.4,230.6 	"/>
	<polygon class="st10" points="302.3,238.4 294.8,242.7 294.8,227.4 302.3,223.1 	"/>
	<polygon class="st10" points="287.1,230.4 279.6,234.8 279.6,219.4 287.1,215.1 	"/>
	<polygon class="st11" points="284.7,212.1 304.1,223.3 294,228.8 274.6,217.6 	"/>
</g>
<g id="Weg_1_">
	<polygon class="st12" points="149.2,316.3 127.5,303.9 127.5,300.9 149.2,313.3 	"/>
	<polygon class="st12" points="333.2,307.2 355.4,294.1 355.4,291.2 333.2,304.3 	"/>
	<polygon class="st13" points="207.3,219 169.6,197.4 185.4,188.6 223.2,210.2 	"/>
	<path class="st14" d="M201.4,195.9l-34.7-7l-7.5,2.8l9.2,5.3c1.9,0.2,3.5,0.2,5.4,0.4c7,0.7,10.9-0.5,24.3,7.2
		c13.4,7.8,17.3,13.4,24.3,20.9l4.8-16.2L201.4,195.9z"/>
	<path class="st12" d="M149.3,313.5c16.9-5.9,28.9-9.4,47.1-13.6c21.9-5.1,53.5-25.9,76.8-38.2c2.7,1.9,5.3,3.7,7.6,5.3
		c23,15.9,32.4,25.1,52.3,37.4l22.6-13c-19.4-12-29.5-19.5-52.2-35.3c-8.9-6.1-26.1-18.9-35.1-24.7c-13.1-8.4-18.2-14.4-24.3-20.9
		c-7-7.5-10.9-13.1-24.3-20.9c-13.4-7.8-17.3-6.6-24.3-7.2c-6.1-0.6-10.8,0.5-24.3-7.3c-3.2-2.2-6.4-4.4-9.5-6.6l-20.9,12.1
		c3.2,2.2,6.5,4.5,9.8,6.8c13.4,7.8,18.2,6.8,24.3,7.3c7,0.7,10.9-0.6,24.3,7.2c13.4,7.8,17.3,13.4,24.3,20.9
		c6.1,6.5,24.4,20.9,24.4,20.9c4.7,3.3,2.4,1.7,6.7,4.7c-22.9,12.2-52.3,31.6-69.2,35.6c-20.7,4.8-37.5,9.7-57.6,16.9L149.3,313.5
		L149.3,313.5z"/>
	<path class="st15" d="M344.3,297.6c-17.3-11.3-32-22.4-51.4-35.7c-9.4-6.5-22-14.5-32.5-23.4C255,234,246,226.9,240.3,219
		c-9.6-13.4-27.8-20.1-33.4-24c-10-6.9-17.6-5.3-35.5-9.6c-4.1-1-13.1-6.7-20.3-11.1"/>
	<path class="st16" d="M266.7,253.1c-21.9,12.3-60.8,35.5-79.7,39.8c-17.5,4-33.4,8.4-49.2,13.9"/>
</g>
<g id="Flat_2_">
	<polygon class="st17" points="217.6,265.1 187.9,248 187.9,208.5 217.6,225.6 	"/>
	<polygon class="st18" points="247.2,248 217.6,265.1 217.6,225.6 247.2,208.5 	"/>
	<polygon class="st19" points="238.4,253.1 226.4,260 226.4,248.8 238.4,241.9 	"/>
	<polygon class="st20" points="217.6,225.6 188,208.5 217.5,191.4 247,208.5 	"/>
	<polygon class="st17" points="217.6,222 212.9,219.3 212.9,213.1 217.6,215.8 	"/>
	<polygon class="st18" points="222.2,219.3 217.6,222 217.6,215.8 222.2,213.1 	"/>
	<polygon class="st17" points="217.6,215.8 213,213.1 217.6,210.5 222.2,213.1 	"/>
	<polygon class="st21" points="189.6,246.6 194.9,249.6 194.9,215.1 189.6,212.1 	"/>
	<polygon class="st21" points="196.5,250.5 201.8,253.6 201.8,219.1 196.5,216.1 	"/>
	<polygon class="st21" points="203.4,254.5 208.7,257.5 208.7,223.1 203.4,220 	"/>
	<polygon class="st21" points="210.3,258.5 215.6,261.5 215.6,227 210.3,224 	"/>
	<polygon class="st22" points="245.4,246.6 240.1,249.6 240.1,215.1 245.4,212.1 	"/>
	<polygon class="st22" points="238.5,240.5 233.2,243.6 233.2,219.1 238.5,216.1 	"/>
	<polygon class="st22" points="231.6,244.5 226.3,247.5 226.3,223.1 231.6,220 	"/>
	<polygon class="st22" points="224.7,258.5 219.4,261.5 219.4,227 224.7,224 	"/>
	<line class="st23" x1="232.4" y1="245.4" x2="232.4" y2="256.5"/>
</g>
<g>
	<polygon class="st24" points="222.3,313.8 243.9,301.3 250.5,305.1 228.9,317.6 	"/>
	<polygon class="st25" points="227,316.8 221.3,313.5 221.3,308.7 227,312 	"/>
	<polygon class="st25" points="243.4,307.1 237.7,303.8 237.7,299 243.4,302.3 	"/>
	<polygon class="st25" points="218.3,310.3 239.9,297.8 246.5,301.6 224.8,314.1 	"/>
	<polygon class="st25" points="216.7,303.5 238.3,291 239.9,297.8 218.3,310.3 	"/>
	<line class="st26" x1="221.5" y1="310.6" x2="240.6" y2="299.5"/>
	<line class="st26" x1="223.8" y1="312" x2="242.9" y2="300.9"/>
	<line class="st26" x1="218.3" y1="304.8" x2="237.4" y2="293.8"/>
	<line class="st26" x1="219" y1="307.3" x2="238.1" y2="296.2"/>
</g>
<g id="Boom_4_">
	<path class="st27" d="M223.5,329.1c-6.8,3.9-17.7,3.9-24.5,0c-6.8-3.9-6.8-10.3-0.1-14.2c6.8-3.9,17.7-3.9,24.5,0
		C230.2,318.9,230.2,325.2,223.5,329.1z"/>
	<g>
		<path class="st28" d="M208,323.1c0,1.6-2.1,2.9-4.7,2.9l0,0c-2.6,0-4.7-1.3-4.7-2.9v-26.7c0-1.6,2.1-2.9,4.7-2.9l0,0
			c2.6,0,4.7,1.3,4.7,2.9V323.1z"/>
		<path class="st29" d="M221.7,308.3l-0.4-0.9c-0.1-0.2-0.2-0.4-0.2-0.6l-17.8-43.2l-17.5,42.6c-0.3,0.5-0.5,1.1-0.7,1.7l-0.2,0.5
			h0.1c-0.6,3.1,1.2,6.3,5.3,8.7c7.2,4.2,18.9,4.2,26.1,0c4.1-2.4,5.9-5.6,5.2-8.7H221.7z"/>
		<path class="st30" d="M185.1,307.7l-0.2,0.5h0.1c-0.6,3.1,1.2,6.3,5.3,8.7c1.9,1.1,4.2,1.9,6.6,2.4l6.4-55.9l-17.5,42.6
			C185.4,306.6,185.2,307.2,185.1,307.7z"/>
		<path class="st31" d="M221.7,308.3l-0.4-0.9c-0.1-0.2-0.2-0.4-0.2-0.6l-17.8-43.2l-17.5,42.6c-0.3,0.5-0.5,1.1-0.7,1.7l-0.2,0.5
			h0.1c-0.6,3.1,1.2,6.3,5.3,8.7c7.2,4.2,18.9,4.2,26.1,0c4.1-2.4,5.9-5.6,5.2-8.7H221.7z"/>
	</g>
</g>
<g id="Boom_3_">
	<path class="st27" d="M219.5,167.6c-4.6,2.7-12.2,2.7-16.8,0c-4.7-2.7-4.7-7-0.1-9.7c4.6-2.7,12.2-2.7,16.8,0
		C224.2,160.6,224.2,164.9,219.5,167.6z"/>
	<g>
		<path class="st28" d="M208.9,163.5c0,1.1-1.5,2-3.3,2l0,0c-1.8,0-3.3-0.9-3.3-2v-18.3c0-1.1,1.5-2,3.3-2l0,0c1.8,0,3.3,0.9,3.3,2
			V163.5z"/>
		<path class="st29" d="M218.3,153.3l-0.3-0.6c0-0.1-0.1-0.3-0.2-0.4l-12.2-49.6l-12,49.2c-0.2,0.4-0.4,0.8-0.5,1.1l-0.2,0.4h0.1
			c-0.4,2.1,0.8,4.3,3.7,5.9c5,2.9,13,2.9,17.9,0C217.5,157.7,218.7,155.4,218.3,153.3L218.3,153.3z"/>
		<path class="st30" d="M193.2,152.9l-0.2,0.4h0.1c-0.4,2.1,0.8,4.3,3.7,5.9c1.3,0.8,2.9,1.3,4.5,1.7l4.4-58.3l-12,49.2
			C193.5,152.2,193.3,152.6,193.2,152.9z"/>
		<path class="st31" d="M218.3,153.3l-0.3-0.6c0-0.1-0.1-0.3-0.2-0.4l-12.2-49.6l-12,49.2c-0.2,0.4-0.4,0.8-0.5,1.1l-0.2,0.4h0.1
			c-0.4,2.1,0.8,4.3,3.7,5.9c5,2.9,13,2.9,17.9,0C217.5,157.7,218.7,155.4,218.3,153.3L218.3,153.3z"/>
	</g>
</g>
<g id="Boom_1_">
	<path class="st27" d="M181.5,271.1c-5.4,3.1-14.1,3.1-19.5,0c-5.4-3.1-5.4-8.2-0.1-11.3c5.4-3.1,14.1-3.1,19.5,0
		C186.9,262.9,186.9,268,181.5,271.1z"/>
	<g>
		<path class="st28" d="M168.3,266.7c0,1-1.3,1.8-3,1.8l0,0c-1.6,0-3-0.8-3-1.8V250c0-1,1.3-1.8,3-1.8l0,0c1.6,0,3,0.8,3,1.8V266.7z
			"/>
	</g>
	<path class="st30" d="M181,239c0,8.7-7,15.7-15.7,15.7c-8.7,0-15.7-7-15.7-15.7c0-8.7,7-15.7,15.7-15.7
		C174,223.3,181,230.4,181,239z"/>
	<path class="st32" d="M165.3,223.3c-0.2,0-0.4,0-0.5,0c-3.9,4.4-6.3,10.2-6.3,16.5c0,5.5,1.8,10.6,4.8,14.7
		c0.7,0.1,1.4,0.1,2.1,0.1c8.7,0,15.7-7,15.7-15.7C181,230.4,174,223.3,165.3,223.3z"/>
	<path class="st33" d="M181,239c0,8.7-7,15.7-15.7,15.7c-8.7,0-15.7-7-15.7-15.7c0-8.7,7-15.7,15.7-15.7
		C174,223.3,181,230.4,181,239z"/>
</g>
<g>
	<path class="st7" d="M400.7,240.1c6,1.4,1.1,2.1,1.1,2.1c-2.7,0.5-5.4,0.7-8.5,0.7c0,0,0,0,0,0c-6.6,0-14.3-1.1-23.7-3.3
		c-11.5-2.7-13.8-4.3-14.2-6.4c0,0,0-0.9,0.7-1.5c1-0.8,2.2-1.8,2.2-1.8"/>
	<path class="st34" d="M398.3,238c-3.9-2.5-10.8-5.3-22-7.9c-15.6-3.7-16.3-1.6-18,0.7l-1.5-0.3l0.3,2.5c0,0.1,0,0.1,0,0.2v0l0,0
		c0.3,1.3,3.1,2.8,13,5.1c15.7,3.7,24.9,3.7,31.5,2.6l2.8-1.7L398.3,238z"/>
	<path class="st8" d="M374.4,228.3"/>
	<path class="st8" d="M369.3,227.2"/>
	<g>
		<defs>
			<path id="SVGID_1_" d="M358,228.3c1.9-2.4,2.5-4.7,19.3-0.7c16.8,3.9,24.6,8.2,27,11.5c-7.1,1.2-16.9,1.2-33.7-2.7
				C353.9,232.4,356.2,230.7,358,228.3z"/>
		</defs>
		<use xlink:href="#SVGID_1_"  style="overflow:visible;fill:#E0AB33;"/>
		<clipPath id="SVGID_2_">
			<use xlink:href="#SVGID_1_"  style="overflow:visible;"/>
		</clipPath>
		<polygon class="st35" points="351.4,224.5 407.7,237.6 407.7,239.3 351.4,226.2 		"/>
		<polygon class="st35" points="350.9,227.1 407.3,240.2 407.3,241.8 350.9,228.7 		"/>
		
			<use xlink:href="#SVGID_1_"  style="overflow:visible;fill:none;stroke:#000000;stroke-width:0.6;stroke-linecap:round;stroke-linejoin:round;stroke-miterlimit:10;"/>
	</g>
	<line class="st8" x1="375.2" y1="227.1" x2="368.9" y2="235.9"/>
	<path class="st36" d="M360.4,233.4c1.9,0.7,4.6,1.5,8.5,2.5l6.3-8.8c-4-0.9-6.9-1.4-9.1-1.6L360.4,233.4z"/>
	<path class="st37" d="M364.8,227.4l8.8,1.9l1.6-2.2c-4-0.9-6.9-1.4-9.1-1.6L364.8,227.4z"/>
	<polygon class="st38" points="367.1,231.9 372.4,224.6 375.3,227.1 368.9,235.9 	"/>
</g>
<polygon class="st39" points="140.7,249.5 130.9,270.9 130.9,293.3 150.4,282 150.4,259.6 "/>
<polygon class="st40" points="137,273.1 137,289.8 144.3,285.6 144.3,268.9 "/>
<polygon class="st39" points="130.9,293.2 104.9,278.2 104.9,255.9 130.9,270.9 "/>
<polygon class="st41" points="114.7,276.6 109,273.2 109,263.5 114.7,266.9 "/>
<polygon class="st41" points="125.6,283.1 120,279.7 120,270 125.6,273.4 "/>
<g>
	<defs>
		<polygon id="SVGID_3_" points="130.9,270.9 104.9,255.9 114.7,234.5 140.7,249.5 		"/>
	</defs>
	<use xlink:href="#SVGID_3_"  style="overflow:visible;fill:#F15D22;"/>
	<clipPath id="SVGID_4_">
		<use xlink:href="#SVGID_3_"  style="overflow:visible;"/>
	</clipPath>
	<polygon class="st42" points="104.9,255.9 130.9,270.9 132.5,267.4 106.5,252.4 	"/>
	<polygon class="st42" points="107.7,249.9 133.7,264.9 135.2,261.4 109.3,246.4 	"/>
	<polygon class="st42" points="110.3,243.9 136.3,258.9 137.9,255.5 111.9,240.5 	"/>
	<polygon class="st42" points="113.1,238 139.1,253 140.7,249.5 114.7,234.5 	"/>
	
		<use xlink:href="#SVGID_3_"  style="overflow:visible;fill:none;stroke:#000000;stroke-width:0.4;stroke-linecap:round;stroke-linejoin:round;stroke-miterlimit:10;"/>
</g>
<path class="st41" d="M143.5,261.9c0,1.8-1.3,4-2.8,4.9c-1.6,0.9-2.8,0.2-2.8-1.6c0-1.8,1.3-4,2.8-4.9
	C142.2,259.4,143.5,260.1,143.5,261.9z"/>
<path d="M139,281.1c0,0.4-0.3,1-0.7,1.2c-0.4,0.2-0.7,0-0.7-0.4c0-0.4,0.3-1,0.7-1.2C138.7,280.5,139,280.7,139,281.1z"/>
<g>
	<g>
		<line class="st43" x1="140" y1="222.4" x2="140" y2="49.2"/>
		<g>
			<polygon class="st44" points="145.8,218.4 140,240.1 134.2,218.4 			"/>
		</g>
	</g>
</g>
<g>
	<g>
		<line class="st45" x1="233.5" y1="189.4" x2="233.5" y2="49.2"/>
		<g>
			<polygon class="st46" points="239.4,185.4 233.5,207.1 227.7,185.4 			"/>
		</g>
	</g>
</g>
<g>
	<g>
		<line class="st45" x1="288.4" y1="192.5" x2="288.4" y2="49.2"/>
		<g>
			<polygon class="st46" points="294.2,188.5 288.4,210.2 282.6,188.5 			"/>
		</g>
	</g>
</g>
<g>
	<g>
		<line class="st45" x1="339.1" y1="267.8" x2="339.1" y2="49.2"/>
		<g>
			<polygon class="st46" points="344.9,263.9 339.1,285.5 333.3,263.9 			"/>
		</g>
	</g>
</g>
<text transform="matrix(1 0 0 1 122.7959 37.6448)" class="st47 st48">BAG</text>
<text transform="matrix(1 0 0 1 215.5756 37.6448)" class="st47 st48">BRK</text>
<text transform="matrix(1 0 0 1 278.2508 37.6448)" class="st47 st48">OV</text>
<text transform="matrix(1 0 0 1 324.57 37.6446)" class="st47 st48">BRT</text>
</svg>
