<?xml version="1.0" encoding="utf-8"?>
<!-- Generator: Adobe Illustrator 22.1.0, SVG Export Plug-In . SVG Version: 6.00 Build 0)  -->
<svg version="1.1" id="Layer_1" xmlns="http://www.w3.org/2000/svg" xmlns:xlink="http://www.w3.org/1999/xlink" x="0px" y="0px"
	 viewBox="0 0 841.9 435.3" style="enable-background:new 0 0 841.9 435.3;" xml:space="preserve">
<style type="text/css">
	.st0{fill:#FFFFFF;stroke:#000000;stroke-width:2;stroke-linecap:round;stroke-linejoin:round;stroke-miterlimit:10;}
	.st1{fill:none;stroke:#000000;stroke-miterlimit:10;}
	.st2{font-family:'HelveticaNeue';}
	.st3{font-size:10px;}
	.st4{font-size:12px;}
	.st5{font-family:'HelveticaNeue-Medium';}
	.st6{fill:none;stroke:#000000;stroke-width:2;stroke-linecap:round;stroke-linejoin:round;stroke-miterlimit:10;}
	.st7{fill:#BAD532;}
	.st8{font-size:7px;}
	.st9{fill:none;stroke:#FFFFFF;stroke-width:10;stroke-miterlimit:10;}
	.st10{fill:none;}
	.st11{font-family:'HelveticaNeue-Bold';}
	.st12{font-size:15px;}
</style>
<g>
	<text transform="matrix(1 0 0 1 -540.4834 90.4863)"><tspan x="0" y="0" class="st2" style="font-size:20.3853px;">Amsterdam / </tspan><tspan x="123.5" y="0" class="st5" style="font-size:20.3853px;">panorama</tspan></text>
	<text transform="matrix(1 0 0 1 -665.4316 172.8789)" class="st2" style="font-size:15.2919px;">Object Store</text>
	<text transform="matrix(1 0 0 1 -282.9922 172.8789)" class="st2" style="font-size:15.2919px;">REST API</text>
	<g>
		<rect x="-515.1" y="113.4" class="st0" width="167.9" height="110.3"/>
		<g>
			<g>
				<path class="st1" d="M-565.7,168.6h70.6c15.7-0.4,21.4-0.8,30.5-4.9c11.6-5.2,16.6-10.1,15.4-21c-1-9.7-6-17.1-25.7-15.3
					c-12.5,1.2-23.8,12.9-15.6,32.4c2.3,5.5,11.2,11.8,17.2,14.8c14.8,7.5,26.2,23.3,20.5,33.3c-3.7,6.6-9.9,9.8-20.4,8.5
					c-9.2-1.1-15.7-7.2-16.2-19.3c-0.6-14.6,30.1-20.5,37.7-22.9c11.5-3.6,32.5-4.5,41.8-12c7-5.6,12.3-10.8,13.3-16.2
					c1-5.6-1.1-13.4-12.2-12.7c-9,0.5-19.2,1.9-23.7,9.7c-5.7,10.1-7.3,23.7-7.1,27.9c1,19.6,16.6,32.9,30.4,35.2
					c24.3,3.9,23.7-10.1,15.5-23.4c-6.4-10.4-24.6-19.7-29.8-30.4c-2.3-4.6-10.6-15.7,5.2-27c9.7-7,22.9-6.7,32.8-1.9
					c17.8,8.7-9.8,30.5-5.2,38.6c1.7,2.9,5.9,6.7,19.6,6.7c14.9,0,49.5,0,65.8,0"/>
				<g>
					<polygon points="-307.5,171.5 -296.6,168.6 -307.5,165.7 					"/>
				</g>
			</g>
		</g>
	</g>
</g>
<text transform="matrix(1 0 0 1 25.0537 117.6506)" class="st2 st3">Object Store</text>
<text transform="matrix(1 0 0 1 770.2644 117.6506)" class="st2 st3">REST API</text>
<text transform="matrix(1 0 0 1 271.0076 105.6504)"><tspan x="0" y="0" class="st2 st3">Afbeeldingen</tspan><tspan x="26.2" y="12" class="st2 st3">&amp;</tspan><tspan x="8.2" y="24" class="st2 st3">metadata</tspan></text>
<text transform="matrix(1 0 0 1 521.9706 105.6506)"><tspan x="0" y="0" class="st2 st3">Afbeeldingen</tspan><tspan x="26.2" y="12" class="st2 st3">&amp;</tspan><tspan x="8.2" y="24" class="st2 st3">metadata</tspan></text>
<g>
	<text transform="matrix(1 0 0 1 102.7217 57.6491)"><tspan x="0" y="0" class="st2 st4">Amsterdam / </tspan><tspan x="72.7" y="0" class="st5 st4">panorama-etl</tspan></text>
	<g>
		<rect x="135" y="86.8" class="st0" width="82.4" height="57"/>
		<g>
			<g>
				<line class="st1" x1="95.1" y1="115.3" x2="248.4" y2="115.3"/>
				<g>
					<polygon points="246.4,118.2 257.2,115.3 246.4,112.4 					"/>
				</g>
			</g>
		</g>
	</g>
</g>
<g>
	<text transform="matrix(1 0 0 1 343.3806 57.6493)"><tspan x="0" y="0" class="st2 st4">Amsterdam / </tspan><tspan x="72.7" y="0" class="st5 st4">panorama-batch</tspan></text>
	<g>
		<g>
			<rect x="384.7" y="86.8" class="st6" width="82.4" height="57"/>
		</g>
	</g>
</g>
<g>
	<text transform="matrix(1 0 0 1 600.3348 57.6489)"><tspan x="0" y="0" class="st2 st4">Amsterdam / </tspan><tspan x="72.7" y="0" class="st5 st4">panorama-api</tspan></text>
	<g>
		<g>
			<g>
				<rect x="634.3" y="86.8" class="st0" width="82.4" height="57"/>
				<g>
					<g>
						<line class="st1" x1="594.4" y1="115.3" x2="747.7" y2="115.3"/>
						<g>
							<polygon points="745.7,118.2 756.6,115.3 745.7,112.4 							"/>
						</g>
					</g>
				</g>
			</g>
		</g>
	</g>
</g>
<g>
	<g>
		<line class="st1" x1="551.3" y1="147" x2="551.3" y2="277.1"/>
		<g>
			<polygon points="548.4,275.2 551.3,286 554.2,275.2 			"/>
		</g>
	</g>
</g>
<path class="st7" d="M625.2,393.7l-143.7,7.2c-8.1,0.4-15-5.8-15.4-13.9l-3.5-70.6c-0.4-8.1,5.8-15,13.9-15.4l143.7-7.2
	c8.1-0.4,15,5.8,15.4,13.9l3.5,70.6C639.5,386.4,633.3,393.3,625.2,393.7z"/>
<g>
	<rect x="384" y="250.3" class="st0" width="82.4" height="20.4"/>
	<text transform="matrix(1 0 0 1 387.9905 262.5456)" class="st2 st8">Numberbordherkenning</text>
</g>
<g>
	<g>
		<path class="st1" d="M344.8,115.3h52.3c4.4,0,8,3.6,8,8v33.6"/>
		<g>
			<polygon points="402.2,154.8 405.1,165.7 408,154.8 			"/>
		</g>
	</g>
</g>
<g>
	<g>
		<line class="st1" x1="405.1" y1="186.1" x2="405.1" y2="199.1"/>
		<g>
			<polygon points="402.2,197.2 405.1,208 408,197.2 			"/>
		</g>
	</g>
</g>
<g>
	<g>
		<line class="st1" x1="405.1" y1="228.4" x2="405.1" y2="241.4"/>
		<g>
			<polygon points="402.2,239.5 405.1,250.3 408,239.5 			"/>
		</g>
	</g>
</g>
<g>
	<g>
		<path class="st1" d="M446,250.3v-127c0-4.4,3.6-8,8-8h44.1"/>
		<g>
			<polygon points="496.1,118.2 506.9,115.3 496.1,112.4 			"/>
		</g>
	</g>
</g>
<rect x="425.2" y="208" transform="matrix(-1 -1.224647e-16 1.224647e-16 -1 891.5875 436.3811)" class="st9" width="41.2" height="20.4"/>
<rect x="425.2" y="165.7" transform="matrix(-1 -1.224647e-16 1.224647e-16 -1 891.5875 351.7621)" class="st9" width="41.2" height="20.4"/>
<g>
	<rect x="384" y="208" class="st0" width="82.4" height="20.4"/>
	<text transform="matrix(1 0 0 1 394.2239 220.5456)" class="st2 st8">Gezichtsherkenning</text>
</g>
<g>
	<rect x="384" y="165.7" class="st0" width="82.4" height="20.4"/>
	<text transform="matrix(1 0 0 1 405.6965 178.2122)" class="st2 st8">Normalisatie</text>
</g>
<rect x="463.7" y="305.7" transform="matrix(0.9961 -8.784427e-02 8.784427e-02 0.9961 -29.2698 49.8584)" class="st10" width="176.3" height="103.6"/>
<text transform="matrix(1 0 0 1 485.906 326.8553)"><tspan x="0" y="0" class="st11 st12">Data! CSV! JSON! </tspan><tspan x="5.5" y="18" class="st11 st12">Shapefiles! RDF! </tspan><tspan x="-15.5" y="36" class="st11 st12">GeoJSON! Vect</tspan><tspan x="94.8" y="36" class="st11 st12">o</tspan><tspan x="103.6" y="36" class="st11 st12">r tiles! </tspan><tspan x="2" y="54" class="st11 st12">Codevoorbeelden! </tspan></text>
</svg>
