<svg id="Layer_1" data-name="Layer 1" xmlns="http://www.w3.org/2000/svg" viewBox="0 0 841.89 245.89"><defs><style>.cls-1{font-size:20.39px;}.cls-1,.cls-4,.cls-8{fill:#231f20;}.cls-1,.cls-4{font-family:HelveticaNeue, Helvetica Neue;}.cls-2{letter-spacing:-0.02em;}.cls-3{font-family:HelveticaNeue-Medium, Helvetica Neue;}.cls-4{font-size:15.29px;}.cls-5{letter-spacing:-0.02em;}.cls-6{fill:#fff;stroke-linecap:round;stroke-linejoin:round;stroke-width:2px;}.cls-6,.cls-7{stroke:#231f20;}.cls-7{fill:none;stroke-miterlimit:10;}</style></defs><title>panorama-architecture</title><text class="cls-1" transform="translate(321.59 56.49)">Amste<tspan class="cls-2" x="58.16" y="0">r</tspan><tspan x="64.58" y="0">dam / </tspan><tspan class="cls-3" x="123.13" y="0">panorama</tspan></text><text class="cls-4" transform="translate(196.46 138.88)">Object Sto<tspan class="cls-5" x="73.08" y="0">r</tspan><tspan x="77.9" y="0">e</tspan></text><text class="cls-4" transform="translate(578.9 138.88)">REST API</text><rect class="cls-6" x="346.79" y="79.41" width="167.88" height="110.32"/><path class="cls-7" d="M296.19,134.57h70.58c15.67-.4,21.43-.83,30.46-4.89,11.59-5.21,16.56-10.06,15.41-21-1-9.72-6-17.12-25.74-15.29-12.48,1.16-23.82,12.87-15.6,32.42,2.34,5.54,11.18,11.75,17.16,14.77,14.75,7.47,26.15,23.26,20.53,33.29-3.68,6.55-9.94,9.81-20.39,8.53-9.15-1.11-15.69-7.24-16.22-19.32-.64-14.57,30.15-20.53,37.71-22.9,11.47-3.59,32.51-4.49,41.79-12,6.95-5.63,12.31-10.79,13.25-16.18,1-5.61-1.07-13.36-12.23-12.74-9,.5-19.24,1.85-23.7,9.68-5.73,10.07-7.34,23.75-7.12,27.91,1,19.57,16.58,32.91,30.44,35.16,24.3,4,23.68-10.1,15.54-23.44-6.37-10.45-24.59-19.75-29.82-30.36-2.27-4.62-10.58-15.73,5.18-27,9.74-7,22.94-6.67,32.8-1.88,17.83,8.67-9.79,30.53-5.23,38.61,1.66,2.93,5.86,6.67,19.62,6.67h65.81"/><polygon class="cls-8" points="554.43 137.48 565.27 134.57 554.43 131.67 554.43 137.48"/></svg>