<svg xmlns="http://www.w3.org/2000/svg" viewBox="0 0 841.89 435.33"><defs><style>.cls-1{isolation:isolate;}.cls-2{font-size:10px;}.cls-10,.cls-13,.cls-16,.cls-2,.cls-5{fill:#231f20;}.cls-13,.cls-2,.cls-5{font-family:HelveticaNeue, Helvetica Neue;}.cls-3{letter-spacing:-0.02em;}.cls-4{letter-spacing:0em;}.cls-5{font-size:12px;}.cls-6{letter-spacing:-0.02em;}.cls-7{font-family:HelveticaNeue-Medium, Helvetica Neue;}.cls-8{fill:#fff;}.cls-11,.cls-8,.cls-9{stroke:#231f20;}.cls-11,.cls-8{stroke-linecap:round;stroke-linejoin:round;stroke-width:2px;}.cls-11,.cls-15,.cls-9{fill:none;}.cls-15,.cls-9{stroke-miterlimit:10;}.cls-12{fill:#bad532;mix-blend-mode:hard-light;}.cls-13{font-size:7px;}.cls-14{letter-spacing:-0.02em;}.cls-15{stroke:#fff;stroke-width:10px;}.cls-16{font-size:15px;font-family:HelveticaNeue-Bold, Helvetica Neue;font-weight:700;}.cls-17{letter-spacing:-0.06em;}.cls-18{letter-spacing:-0.02em;}</style></defs><title>panorama-architecture</title><g class="cls-1"><g id="Layer_1" data-name="Layer 1"><text class="cls-2" transform="translate(25.05 117.65)">Object Sto<tspan class="cls-3" x="47.79" y="0">r</tspan><tspan class="cls-4" x="50.94" y="0">e</tspan></text><text class="cls-2" transform="translate(770.26 117.65)">REST API</text><text class="cls-2" transform="translate(271.01 105.65)">Afbeeldingen<tspan x="26.2" y="12">&amp;</tspan><tspan x="8.23" y="24">metadata</tspan></text><text class="cls-2" transform="translate(521.97 105.65)">Afbeeldingen<tspan x="26.2" y="12">&amp;</tspan><tspan x="8.23" y="24">metadata</tspan></text><text class="cls-5" transform="translate(102.83 57.65)">Amste<tspan class="cls-6" x="34.24" y="0">r</tspan><tspan x="38.02" y="0">dam / </tspan><tspan class="cls-7" x="72.48" y="0">panorama-etl</tspan></text><rect class="cls-8" x="134.98" y="86.76" width="82.35" height="57"/><line class="cls-9" x1="95.06" y1="115.26" x2="248.39" y2="115.26"/><polygon class="cls-10" points="246.41 118.17 257.25 115.26 246.41 112.36 246.41 118.17"/><text class="cls-5" transform="translate(343.49 57.65)">Amste<tspan class="cls-6" x="34.24" y="0">r</tspan><tspan x="38.02" y="0">dam / </tspan><tspan class="cls-7" x="72.48" y="0">panorama-batch</tspan></text><rect class="cls-11" x="384.67" y="86.76" width="82.35" height="57"/><text class="cls-5" transform="translate(600.44 57.65)">Amste<tspan class="cls-6" x="34.24" y="0">r</tspan><tspan x="38.02" y="0">dam / </tspan><tspan class="cls-7" x="72.48" y="0">panorama-api</tspan></text><rect class="cls-8" x="634.3" y="86.76" width="82.35" height="57"/><line class="cls-9" x1="594.38" y1="115.26" x2="747.71" y2="115.26"/><polygon class="cls-10" points="745.72 118.17 756.57 115.26 745.72 112.36 745.72 118.17"/><line class="cls-9" x1="551.3" y1="147" x2="551.3" y2="277.14"/><polygon class="cls-10" points="548.39 275.16 551.29 286 554.2 275.16 548.39 275.16"/><rect class="cls-12" x="464.26" y="297.34" width="173.21" height="100" rx="14.67" ry="14.67" transform="translate(-16.62 27.88) rotate(-2.86)"/><rect class="cls-8" x="384.03" y="250.31" width="82.35" height="20.38"/><text class="cls-13" transform="translate(388.05 262.55)">Numberbo<tspan class="cls-14" x="33.33" y="0">r</tspan><tspan x="35.53" y="0">dherkenning</tspan></text><path class="cls-9" d="M344.76,115.26h52.32a8,8,0,0,1,8,8v33.57"/><polygon class="cls-10" points="402.18 154.85 405.08 165.69 407.99 154.85 402.18 154.85"/><line class="cls-9" x1="405.08" y1="186.07" x2="405.08" y2="199.14"/><polygon class="cls-10" points="402.18 197.16 405.08 208 407.99 197.16 402.18 197.16"/><line class="cls-9" x1="405.08" y1="228.38" x2="405.08" y2="241.45"/><polygon class="cls-10" points="402.18 239.47 405.08 250.31 407.99 239.47 402.18 239.47"/><path class="cls-9" d="M446,250.31v-127a8,8,0,0,1,8-8h44.11"/><polygon class="cls-10" points="496.1 118.17 506.94 115.26 496.1 112.36 496.1 118.17"/><rect class="cls-15" x="425.21" y="208" width="41.18" height="20.38" transform="translate(891.59 436.38) rotate(180)"/><rect class="cls-15" x="425.21" y="165.69" width="41.18" height="20.38" transform="translate(891.59 351.76) rotate(180)"/><rect class="cls-8" x="384.03" y="208" width="82.35" height="20.38"/><text class="cls-13" transform="translate(394.22 220.55)">Gezichtsherkenning</text><rect class="cls-8" x="384.03" y="165.69" width="82.35" height="20.38"/><text class="cls-13" transform="translate(405.7 178.21)">Normalisatie</text><text class="cls-16" transform="translate(485.91 326.86)">Data! CSV! JSON! <tspan x="5.52" y="18">Shapefiles! RDF! </tspan><tspan x="-15.12" y="36">GeoJSON! </tspan><tspan class="cls-17" x="63.24" y="36">V</tspan><tspan x="71.87" y="36">ect</tspan><tspan class="cls-18" x="94.37" y="36">o</tspan><tspan x="103.23" y="36">r tiles! </tspan><tspan x="2.02" y="54">Codevoorbeelden! </tspan></text></g></g></svg>